<!--
  - (c) Meta Platforms, Inc. and affiliates. Confidential and proprietary.
  -->
<svg width="40px" height="40px" viewBox="0 0 20 20" fill="none" xmlns="http://www.w3.org/2000/svg">
    <path d="M16.6667 5.83333C16.4306 5.83333 16.2327 5.75347 16.073 5.59375C15.9132 5.43403 15.8334 5.23611 15.8334 5V4.16667H15C14.7639 4.16667 14.566 4.0868 14.4063 3.92708C14.2466 3.76736 14.1667 3.56944 14.1667 3.33333C14.1667 3.09722 14.2466 2.8993 14.4063 2.73958C14.566 2.57986 14.7639 2.5 15 2.5H15.8334V1.66667C15.8334 1.43055 15.9132 1.23264 16.073 1.07292C16.2327 0.913193 16.4306 0.833332 16.6667 0.833332C16.9028 0.833332 17.1007 0.913193 17.2605 1.07292C17.4202 1.23264 17.5 1.43055 17.5 1.66667V2.5H18.3334C18.5695 2.5 18.7674 2.57986 18.9271 2.73958C19.0868 2.8993 19.1667 3.09722 19.1667 3.33333C19.1667 3.56944 19.0868 3.76736 18.9271 3.92708C18.7674 4.0868 18.5695 4.16667 18.3334 4.16667H17.5V5C17.5 5.23611 17.4202 5.43403 17.2605 5.59375C17.1007 5.75347 16.9028 5.83333 16.6667 5.83333ZM9.16671 14.5833C10.2084 14.5833 11.0938 14.2187 11.823 13.4896C12.5521 12.7604 12.9167 11.875 12.9167 10.8333C12.9167 9.79167 12.5521 8.90625 11.823 8.17708C11.0938 7.44792 10.2084 7.08333 9.16671 7.08333C8.12504 7.08333 7.23962 7.44792 6.51046 8.17708C5.78129 8.90625 5.41671 9.79167 5.41671 10.8333C5.41671 11.875 5.78129 12.7604 6.51046 13.4896C7.23962 14.2187 8.12504 14.5833 9.16671 14.5833ZM9.16671 12.9167C8.58337 12.9167 8.09032 12.7153 7.68754 12.3125C7.28476 11.9097 7.08337 11.4167 7.08337 10.8333C7.08337 10.25 7.28476 9.75694 7.68754 9.35417C8.09032 8.95139 8.58337 8.75 9.16671 8.75C9.75004 8.75 10.2431 8.95139 10.6459 9.35417C11.0487 9.75694 11.25 10.25 11.25 10.8333C11.25 11.4167 11.0487 11.9097 10.6459 12.3125C10.2431 12.7153 9.75004 12.9167 9.16671 12.9167ZM2.50004 17.5C2.04171 17.5 1.64935 17.3368 1.32296 17.0104C0.996569 16.684 0.833374 16.2917 0.833374 15.8333V5.83333C0.833374 5.375 0.996569 4.98264 1.32296 4.65625C1.64935 4.32986 2.04171 4.16667 2.50004 4.16667H5.12504L6.16671 3.04167C6.31949 2.875 6.50351 2.74305 6.71879 2.64583C6.93407 2.54861 7.15976 2.5 7.39587 2.5H11.6667C11.9028 2.5 12.1007 2.57986 12.2605 2.73958C12.4202 2.8993 12.5 3.09722 12.5 3.33333V4.58333C12.5 4.93055 12.6216 5.22569 12.8646 5.46875C13.1077 5.7118 13.4028 5.83333 13.75 5.83333H14.1667V6.25C14.1667 6.59722 14.2882 6.89236 14.5313 7.13542C14.7743 7.37847 15.0695 7.5 15.4167 7.5H16.6667C16.9028 7.5 17.1007 7.57986 17.2605 7.73958C17.4202 7.8993 17.5 8.09722 17.5 8.33333V15.8333C17.5 16.2917 17.3368 16.684 17.0105 17.0104C16.6841 17.3368 16.2917 17.5 15.8334 17.5H2.50004Z" fill="#1B8755"/>
</svg>
